<!--?xml version="1.0" encoding="utf-8"?-->
<!-- Generator: Adobe Illustrator 19.0.0, SVG Export Plug-In . SVG Version: 6.00 Build 0)  -->
<svg version="1.1" id="图层_1" xmlns="http://www.w3.org/2000/svg" xmlns:xlink="http://www.w3.org/1999/xlink" x="0px" y="0px" viewBox="0 0 1920 960" xml:space="preserve">
<style type="text/css">
	.st1{fill:none;stroke:#1AA1E5;stroke-miterlimit:10;}
</style>

<path class="st1 DebPhDpB_0" stroke="#1AA1E5" d="M869.5,581.1L613.9,730.4"></path>
<path class="st1 DebPhDpB_1" d="M613.9,730.4L484.1,730.4"></path>
<path class="st1 DebPhDpB_2" d="M484.6,730.5L484.6,650.6"></path>
<path class="st1 DebPhDpB_3" d="M477.09999999999997,642.9A7.8,7.8 0,1,1 492.7,642.9A7.8,7.8 0,1,1 477.09999999999997,642.9"></path>



<path class="st1 DebPhDpB_4" d="M954.7,435.7L954.7,258.6"></path>
<path class="st1 DebPhDpB_5" d="M955.2,258.9L484.9,258.9"></path>
<path class="st1 DebPhDpB_6" d="M485.4,304.2L485.4,258.4"></path>
<path class="st1 DebPhDpB_7" stroke="#1AA1E5" d="M477.09999999999997,312.5A7.8,7.8 0,1,1 492.7,312.5A7.8,7.8 0,1,1 477.09999999999997,312.5"></path>




<path class="st1 DebPhDpB_8" d="M1038.5,581.2L1150.9,648.5"></path>
<path class="st1 DebPhDpB_9" d="M1150.9,648.5L1284,648.5"></path>
<path class="st1 DebPhDpB_10" d="M1283.4,648.5L1283.4,495.9"></path>
<path class="st1 DebPhDpB_11" d="M1276.2,488.1A7.8,7.8 0,1,1 1291.8,488.1A7.8,7.8 0,1,1 1276.2,488.1"></path>

<style>.DebPhDpB_0{stroke-dasharray:297 299;stroke-dashoffset:298;animation:DebPhDpB_draw 1002ms linear 0ms forwards;}.DebPhDpB_1{stroke-dasharray:130 132;stroke-dashoffset:131;animation:DebPhDpB_draw 440ms linear 1002ms forwards;}.DebPhDpB_2{stroke-dasharray:80 82;stroke-dashoffset:81;animation:DebPhDpB_draw 272ms linear 1443ms forwards;}.DebPhDpB_3{stroke-dasharray:50 52;stroke-dashoffset:51;animation:DebPhDpB_draw 171ms linear 1716ms forwards;}.DebPhDpB_4{stroke-dasharray:178 180;stroke-dashoffset:179;animation:DebPhDpB_draw 602ms linear 1887ms forwards;}.DebPhDpB_5{stroke-dasharray:471 473;stroke-dashoffset:472;animation:DebPhDpB_draw 1588ms linear 2490ms forwards;}.DebPhDpB_6{stroke-dasharray:46 48;stroke-dashoffset:47;animation:DebPhDpB_draw 158ms linear 4078ms forwards;}.DebPhDpB_7{stroke-dasharray:50 52;stroke-dashoffset:51;animation:DebPhDpB_draw 171ms linear 4236ms forwards;}.DebPhDpB_8{stroke-dasharray:132 134;stroke-dashoffset:133;animation:DebPhDpB_draw 447ms linear 4408ms forwards;}.DebPhDpB_9{stroke-dasharray:134 136;stroke-dashoffset:135;animation:DebPhDpB_draw 454ms linear 4855ms forwards;}.DebPhDpB_10{stroke-dasharray:153 155;stroke-dashoffset:154;animation:DebPhDpB_draw 518ms linear 5310ms forwards;}.DebPhDpB_11{stroke-dasharray:50 52;stroke-dashoffset:51;animation:DebPhDpB_draw 171ms linear 5828ms forwards;}@keyframes DebPhDpB_draw{100%{stroke-dashoffset:0;}}@keyframes DebPhDpB_fade{0%{stroke-opacity:1;}96.07843137254902%{stroke-opacity:1;}100%{stroke-opacity:0;}}</style></svg>
