<!--?xml version="1.0" encoding="utf-8"?-->
<!-- Generator: Adobe Illustrator 19.0.0, SVG Export Plug-In . SVG Version: 6.00 Build 0)  -->
<svg version="1.1" id="图层_1" xmlns="http://www.w3.org/2000/svg" xmlns:xlink="http://www.w3.org/1999/xlink" x="0px" y="0px" viewBox="0 0 1920 960" xml:space="preserve">
<style type="text/css">
	.st1{fill:none;stroke:#1AA1E5;stroke-miterlimit:10;}
</style>

<path class="st1 sGKDLncR_0" stroke="#1AA1E5" d="M869.5,581.1L613.9,730.4"></path>
<path class="st1 sGKDLncR_1" d="M613.9,730.4L484.1,730.4"></path>
<path class="st1 sGKDLncR_2" d="M484.6,730.5L484.6,650.6"></path>
<path class="st1 sGKDLncR_3" d="M477.09999999999997,642.9A7.8,7.8 0,1,1 492.7,642.9A7.8,7.8 0,1,1 477.09999999999997,642.9"></path>



<path class="st1 sGKDLncR_4" d="M954.7,430.7L954.7,208.6"></path>
<path class="st1 sGKDLncR_5" d="M955.2,208.9L484.9,208.9"></path>
<path class="st1 sGKDLncR_6" d="M485.4,208.4L485.4,304.2"></path>
<path class="st1 sGKDLncR_7" stroke="#1AA1E5" d="M477.09999999999997,312.5A7.8,7.8 0,1,1 492.7,312.5A7.8,7.8 0,1,1 477.09999999999997,312.5"></path>




<!-- <line class="st1" x1="1038.5" y1="581.2" x2="1150.9" y2="648.5" /> -->
<path class="st1 sGKDLncR_8" d="M1038.5,581.2L1208.9,687.5"></path>
<path xmlns="http://www.w3.org/2000/svg" class="st1 sGKDLncR_9" d="M1208.9,688.5L1344,688.5"></path>
<path class="st1 sGKDLncR_10" d="M1344,690L1344,495.9"></path>
<path class="st1 sGKDLncR_11" d="M1336.2,488.1A7.8,7.8 0,1,1 1351.8,488.1A7.8,7.8 0,1,1 1336.2,488.1"></path>

<style>.sGKDLncR_0{stroke-dasharray:297 299;stroke-dashoffset:298;animation:sGKDLncR_draw 898ms linear 0ms forwards;}.sGKDLncR_1{stroke-dasharray:130 132;stroke-dashoffset:131;animation:sGKDLncR_draw 394ms linear 898ms forwards;}.sGKDLncR_2{stroke-dasharray:80 82;stroke-dashoffset:81;animation:sGKDLncR_draw 244ms linear 1292ms forwards;}.sGKDLncR_3{stroke-dasharray:50 52;stroke-dashoffset:51;animation:sGKDLncR_draw 153ms linear 1536ms forwards;}
	.sGKDLncR_4{stroke-dasharray:223 225;stroke-dashoffset:224;animation:sGKDLncR_draw 675ms linear 1690ms forwards;}.sGKDLncR_5{stroke-dasharray:471 473;stroke-dashoffset:472;animation:sGKDLncR_draw 1422ms linear 2365ms forwards;}.sGKDLncR_6{stroke-dasharray:96 98;stroke-dashoffset:97;animation:sGKDLncR_draw 292ms linear 3788ms forwards;}.sGKDLncR_7{stroke-dasharray:50 52;stroke-dashoffset:51;animation:sGKDLncR_draw 153ms linear 4080ms forwards;}.sGKDLncR_8{stroke-dasharray:201 203;stroke-dashoffset:202;animation:sGKDLncR_draw 608ms linear 4234ms forwards;}.sGKDLncR_9{stroke-dasharray:136 138;stroke-dashoffset:137;animation:sGKDLncR_draw 412ms linear 4842ms forwards;}.sGKDLncR_10{stroke-dasharray:195 197;stroke-dashoffset:196;animation:sGKDLncR_draw 590ms linear 5255ms forwards;}.sGKDLncR_11{stroke-dasharray:50 52;stroke-dashoffset:51;animation:sGKDLncR_draw 153ms linear 5846ms forwards;}@keyframes sGKDLncR_draw{100%{stroke-dashoffset:0;}}@keyframes sGKDLncR_fade{0%{stroke-opacity:1;}96.07843137254902%{stroke-opacity:1;}100%{stroke-opacity:0;}}</style></svg>
