<?xml version="1.0" encoding="utf-8"?>
<svg version="1.0" xmlns="http://www.w3.org/2000/svg" width="900.000000pt" height="345.000000pt" viewBox="0 0 900.000000 345.000000" preserveAspectRatio="xMidYMid meet">
<metadata>
Created by potrace 1.10, written by Peter Selinger 2001-2011</metadata>
<g transform="translate(0.000000,345.000000) scale(0.100000,-0.100000)" fill="#1aa1e5" stroke="none">
<path d="M8950 3437 c0 -7 -24 -24 -52 -36 -29 -13 -66 -33 -83 -44 -16 -12&#xA;-48 -31 -70 -42 -22 -11 -58 -32 -80 -46 -22 -14 -61 -36 -87 -49 -27 -13 -48&#xA;-27 -48 -32 0 -4 -6 -8 -14 -8 -8 0 -21 -6 -28 -13 -7 -7 -32 -22 -55 -34 -67&#xA;-35 -86 -46 -124 -75 -20 -16 -43 -28 -50 -28 -7 0 -38 -16 -68 -36 -73 -47&#xA;-308 -184 -316 -184 -3 0 -31 -17 -63 -39 -31 -21 -78 -49 -104 -61 -27 -13&#xA;-48 -27 -48 -32 0 -4 -6 -8 -14 -8 -8 0 -21 -6 -28 -12 -7 -7 -35 -24 -61 -38&#xA;-26 -13 -47 -28 -47 -32 0 -5 -7 -8 -14 -8 -8 0 -35 -13 -59 -30 -25 -16 -49&#xA;-30 -54 -30 -6 0 -28 -13 -49 -28 -21 -16 -51 -35 -66 -43 -14 -8 -47 -25 -72&#xA;-38 -25 -14 -46 -28 -46 -31 0 -4 -25 -17 -55 -30 -30 -13 -55 -26 -55 -29 0&#xA;-4 -17 -15 -37 -26 -21 -10 -45 -24 -53 -31 -8 -6 -46 -28 -85 -49 -38 -20&#xA;-72 -40 -75 -44 -3 -3 -16 -12 -30 -18 -45 -22 -113 -62 -119 -70 -3 -4 -28&#xA;-19 -56 -32 -27 -14 -56 -31 -63 -38 -7 -7 -18 -13 -24 -13 -6 0 -26 -11 -44&#xA;-25 -18 -14 -36 -25 -40 -25 -7 0 -126 -71 -134 -80 -3 -3 -29 -17 -57 -30&#xA;-29 -14 -53 -28 -53 -32 0 -5 -7 -8 -15 -8 -9 0 -18 -6 -21 -14 -3 -8 -16 -17&#xA;-30 -20 -21 -6 -171 -91 -184 -105 -3 -3 -27 -17 -55 -30 -27 -14 -52 -28 -55&#xA;-32 -3 -3 -32 -21 -65 -39 -80 -43 -127 -71 -143 -87 -7 -7 -17 -13 -22 -13&#xA;-5 0 -60 -31 -123 -69 -63 -38 -124 -72 -136 -76 -11 -3 -21 -11 -21 -16 0 -5&#xA;-7 -9 -15 -9 -9 0 -18 -7 -21 -15 -4 -8 -12 -15 -20 -15 -15 0 -57 -21 -120&#xA;-62 -23 -14 -56 -35 -75 -45 -19 -10 -52 -30 -74 -44 -43 -27 -74 -45 -142&#xA;-79 -24 -11 -43 -24 -43 -29 0 -5 -8 -12 -17 -15 -25 -9 -109 -56 -161 -89&#xA;-24 -16 -51 -31 -60 -34 -9 -3 -30 -16 -47 -27 -16 -12 -41 -27 -55 -34 -14&#xA;-7 -47 -26 -75 -42 -27 -17 -56 -34 -64 -37 -8 -4 -37 -21 -65 -40 -28 -18&#xA;-54 -33 -59 -33 -4 0 -29 -15 -55 -33 -26 -18 -73 -45 -105 -61 -31 -16 -57&#xA;-33 -57 -38 0 -4 -5 -8 -11 -8 -6 0 -45 -20 -86 -45 -40 -25 -75 -45 -77 -45&#xA;-3 0 -28 -16 -57 -35 -30 -19 -58 -35 -63 -35 -5 0 -23 -10 -40 -22 -17 -13&#xA;-53 -34 -81 -48 -27 -14 -52 -28 -55 -31 -11 -12 -178 -109 -189 -109 -6 0&#xA;-11 -4 -11 -10 0 -5 -4 -10 -9 -10 -5 0 -33 -16 -62 -35 -30 -19 -59 -35 -65&#xA;-35 -7 0 -14 -7 -18 -15 -5 -13 -176 -15 -1486 -13 l-1481 3 -2 890 -2 891 36&#xA;17 c19 9 40 17 46 17 17 0 82 67 93 96 18 47 12 133 -12 173 -30 48 -54 67&#xA;-110 85 -54 18 -84 20 -93 6 -3 -5 -17 -10 -30 -10 -13 0 -28 -6 -32 -13 -4&#xA;-8 -16 -18 -27 -24 -41 -22 -59 -149 -33 -226 14 -39 68 -87 98 -87 9 0 20 -7&#xA;23 -16 3 -9 6 -415 6 -904 0 -489 3 -895 6 -904 6 -15 147 -16 1505 -16 993 0&#xA;1499 3 1499 10 0 6 11 10 25 10 14 0 47 13 73 30 27 16 52 30 55 30 7 0 109&#xA;61 117 69 7 8 54 34 115 65 28 14 65 37 84 51 19 14 41 25 48 25 7 0 13 5 13&#xA;10 0 6 6 10 13 10 8 0 33 14 55 30 23 17 45 30 48 30 4 0 40 20 81 45 40 25&#xA;77 45 80 45 4 0 14 6 22 14 9 7 47 30 85 50 38 21 75 44 83 52 8 7 19 14 24&#xA;14 8 0 109 59 119 70 3 3 28 16 55 29 28 14 52 27 55 31 6 8 81 53 120 72 32&#xA;16 123 70 130 77 5 6 27 18 113 63 20 11 37 24 37 28 0 5 14 11 30 15 17 4 30&#xA;10 30 14 0 3 12 12 28 19 31 13 115 62 122 71 3 3 27 17 55 31 27 14 55 30 62&#xA;35 32 26 41 32 88 54 28 14 52 27 55 30 7 8 40 29 70 43 14 7 76 43 138 80 62&#xA;38 117 68 122 68 5 0 15 7 23 14 8 8 45 31 83 52 38 20 87 50 108 65 22 16 43&#xA;29 48 29 4 0 59 31 123 70 64 38 120 70 125 70 5 0 15 6 22 13 18 16 43 31 98&#xA;59 25 12 63 34 85 49 46 30 119 73 155 91 14 7 27 15 30 19 5 6 39 25 108 59&#xA;23 11 42 25 42 30 0 6 6 10 14 10 7 0 25 9 39 20 14 11 30 20 36 20 6 0 33 15&#xA;59 33 26 18 73 45 105 61 31 16 57 33 57 38 0 4 5 8 11 8 6 0 45 20 86 45 40&#xA;25 75 45 77 45 3 0 28 16 57 35 30 19 57 35 61 35 5 0 35 18 67 40 32 22 62&#xA;40 66 40 4 0 51 26 104 58 53 32 103 61 111 65 18 9 39 22 97 60 24 15 47 27&#xA;51 27 5 0 27 13 48 28 21 16 62 39 89 53 28 13 52 26 55 29 10 11 111 70 119&#xA;70 5 0 16 6 23 13 7 6 35 23 61 37 26 13 47 27 47 31 0 3 19 14 43 25 37 16&#xA;92 49 107 64 3 3 28 16 55 30 28 14 52 27 55 30 10 10 46 31 73 43 15 6 27 15&#xA;27 19 0 4 5 8 11 8 11 0 128 67 139 79 3 3 28 17 55 30 28 14 52 27 55 31 9&#xA;11 127 80 138 80 5 0 12 7 16 15 3 8 12 15 21 15 8 0 15 9 15 20 0 15 -7 20&#xA;-25 20 -14 0 -25 -6 -25 -13z m-8729 -1289 c19 -6 46 -25 62 -41 23 -26 27&#xA;-39 27 -89 0 -69 -16 -99 -72 -134 -47 -30 -78 -30 -126 0 -94 59 -115 134&#xA;-59 207 45 60 103 79 168 57z"/>
</g>
</svg>
