<svg xmlns="http://www.w3.org/2000/svg" xmlns:se="http://svg-edit.googlecode.com" xmlns:xlink="http://www.w3.org/1999/xlink" xmlns:dc="http://purl.org/dc/elements/1.1/" xmlns:cc="http://creativecommons.org/ns#" xmlns:rdf="http://www.w3.org/1999/02/22-rdf-syntax-ns#" xmlns:inkscape="http://www.inkscape.org/namespaces/inkscape" width="631" height="552">                                    <title>my vector image</title>                                    <!-- Created with Vector Paint - http://www.vectorpaint.yaks.com/ https://chrome.google.com/webstore/detail/hnbpdiengicdefcjecjbnjnoifekhgdo -->                                    <rect id="backgroundrect" width="100%" height="100%" x="0" y="0" fill="#FFFFFF" stroke="none"/>                                <g class="currentLayer"><title>Layer 1</title><path fill="#0bd5d5" fill-opacity="1" stroke="#1aeb1a" stroke-opacity="1" stroke-width="2" stroke-dasharray="none" stroke-linejoin="round" stroke-linecap="butt" stroke-dashoffset="" fill-rule="nonzero" opacity="1" marker-start="" marker-mid="" marker-end="" d="M398.9507074659914,217.9014006297055 L232.04930798258738,334.09857748523996 " id="svg_1" class=""/><path fill="#0bd5d5" fill-opacity="1" stroke="#1aeb1a" stroke-opacity="1" stroke-width="2" stroke-dasharray="none" stroke-linejoin="round" stroke-linecap="butt" stroke-dashoffset="" fill-rule="nonzero" opacity="1" marker-start="" marker-mid="" marker-end="" d="M230.6985865472828,333.4253266334358L44.783103578427614,333.4253266334358" id="svg_6"/><path fill="#0bd5d5" fill-opacity="1" stroke="#1aeb1a" stroke-opacity="1" stroke-width="2" stroke-dasharray="none" stroke-linejoin="round" stroke-linecap="butt" stroke-dashoffset="" fill-rule="nonzero" opacity="1" marker-start="" marker-mid="" marker-end="" d="M29,333.6830987930298 C29,330.0919385720353 31.908839779005525,327.1830987930298 35.5,327.1830987930298 C39.091160220994475,327.1830987930298 42,330.0919385720353 42,333.6830987930298 C42,337.27425901402427 39.091160220994475,340.1830987930298 35.5,340.1830987930298 C31.908839779005525,340.1830987930298 29,337.27425901402427 29,333.6830987930298 z" id="svg_8" class=""/><path fill="#0bd5d5" fill-opacity="1" stroke="#1aeb1a" stroke-opacity="1" stroke-width="2" stroke-dasharray="none" stroke-linejoin="round" stroke-linecap="butt" stroke-dashoffset="" fill-rule="nonzero" opacity="1" marker-start="" marker-mid="" marker-end="" d="M32,337.5 C32,336.67127071823205 32,336 32,336 C32,336 32,336.67127071823205 32,337.5 C32,338.32872928176795 32,339 32,339 C32,339 32,338.32872928176795 32,337.5 Z" id="svg_10"/><path fill="#0bd5d5" fill-opacity="1" stroke="#1aeb1a" stroke-opacity="1" stroke-width="2" stroke-dasharray="none" stroke-linejoin="round" stroke-linecap="butt" stroke-dashoffset="" fill-rule="nonzero" opacity="1" marker-start="" marker-mid="" marker-end="" d="M32,334 C32,332.89502762430936 32.89502762430939,332 34,332 C35.10497237569061,332 36,332.89502762430936 36,334 C36,335.10497237569064 35.10497237569061,336 34,336 C32.89502762430939,336 32,335.10497237569064 32,334 Z" id="svg_12"/><path fill="#0bd5d5" fill-opacity="1" stroke="#1aeb1a" stroke-opacity="1" stroke-width="2" stroke-dasharray="none" stroke-linejoin="round" stroke-linecap="butt" stroke-dashoffset="" fill-rule="nonzero" opacity="1" marker-start="" marker-mid="" marker-end="" d="M32,336.5 C32,336.22375690607737 32,336 32,336 C32,336 32,336.22375690607737 32,336.5 C32,336.77624309392263 32,337 32,337 C32,337 32,336.77624309392263 32,336.5 Z" id="svg_15"/><path fill="#0bd5d5" fill-opacity="1" stroke="#1aeb1a" stroke-opacity="1" stroke-width="2" stroke-dasharray="none" stroke-linejoin="round" stroke-linecap="butt" stroke-dashoffset="" fill-rule="nonzero" opacity="1" marker-start="" marker-mid="" marker-end="" d="M34,331.5 C34,330.11878453038673 34.89502762430939,329 36,329 C37.10497237569061,329 38,330.11878453038673 38,331.5 C38,332.88121546961327 37.10497237569061,334 36,334 C34.89502762430939,334 34,332.88121546961327 34,331.5 Z" id="svg_17"/><path fill="#0bd5d5" fill-opacity="1" stroke="#1aeb1a" stroke-opacity="1" stroke-width="2" stroke-dasharray="none" stroke-linejoin="round" stroke-linecap="butt" stroke-dashoffset="" fill-rule="nonzero" opacity="1" marker-start="" marker-mid="" marker-end="" d="M59,292 C59,292 59.22375690607735,292 59.5,292 C59.77624309392265,292 60,292 60,292 C60,292 59.77624309392265,292 59.5,292 C59.22375690607735,292 59,292 59,292 Z" id="svg_19"/></g></svg>