<?xml version="1.0" encoding="utf-8"?>
<!-- Generator: Adobe Illustrator 16.0.0, SVG Export Plug-In . SVG Version: 6.00 Build 0)  -->
<!DOCTYPE svg PUBLIC "-//W3C//DTD SVG 1.1//EN" "http://www.w3.org/Graphics/SVG/1.1/DTD/svg11.dtd">
<svg version="1.1" xmlns="http://www.w3.org/2000/svg" xmlns:xlink="http://www.w3.org/1999/xlink" x="0px" y="0px" width="168px"
	 height="50px" viewBox="0 0 168 50" enable-background="new 0 0 168 50" xml:space="preserve">
<g id="图层_1">
	<path fill-rule="evenodd" clip-rule="evenodd" fill="#FFFFFF" d="M43.064,27.41H43.03h-0.035H42.96h-0.035h-0.034h-0.035h-0.035
		h-0.036h-0.034h-0.035h-0.035h-0.035h-0.035h-0.035h-0.035H42.51h-0.035H42.44h-0.035h-0.034h-0.035h-0.035h-0.035h-0.034h-0.035
		h-0.035h-0.034h-0.035h-0.035h-0.034h-0.035h-0.035H41.92h-0.035h-0.035h-0.035h-0.035h-0.035h-0.035h-0.035h-0.035h-0.034h-0.035
		h-0.035h-0.034h-0.035h-0.035H41.4h-0.035H41.33h-0.035h-0.035h-0.034h-0.035h-0.016h-0.331c-0.537-0.008-1.167-0.612-0.742-1.355
		l2.907-4.871c0.125-0.335-0.003-0.799-0.523-0.847h-3.223c-0.191,0-0.347-0.156-0.347-0.347v-0.694
		c0-0.191,0.156-0.347,0.347-0.347h14.864c0.191,0,0.347,0.156,0.347,0.347v0.694c0,0.19-0.156,0.347-0.347,0.347h-6.571
		c-0.176,0.024-0.33,0.122-0.426,0.261l-2.704,4.531c-0.217,0.563,0.077,1.138,0.674,1.237h3.779
		c0.577-0.095,0.87-0.636,0.694-1.183c-0.427-0.673-1.132-1.711-1.558-2.385c-0.155-0.231,0.032-0.387,0.188-0.367h3.177
		c0.081,0,0.193,0.035,0.271,0.151l2.29,3.472c0.426,0.743-0.205,1.348-0.742,1.355h-1.025H52.16h-0.034H52.09h-0.035h-0.035h-0.035
		h-0.035h-0.034h-0.035h-0.035h-0.034h-0.035h-0.035h-0.034h-0.035h-0.036h-0.034H51.57h-0.035h-0.034h-0.035h-0.035h-0.034h-0.035
		h-0.035h-0.035h-0.035h-0.034h-0.034h-0.036h-0.035h-0.034H51.05h-0.035H50.98H43.064z M39.253,15.142h14.884
		c0.186,0,0.337,0.152,0.337,0.337v0.675c0,0.185-0.151,0.337-0.337,0.337H39.253c-0.185,0-0.337-0.152-0.337-0.337v-0.675
		C38.916,15.293,39.068,15.142,39.253,15.142"/>
	<path fill-rule="evenodd" clip-rule="evenodd" fill="#FFFFFF" d="M58.797,27.319h-2.001c-0.131-0.005-0.263-0.112-0.221-0.303
		c0.719-2.138,1.44-4.274,2.161-6.412c0.05-0.195-0.106-0.269-0.191-0.267H56.43c-0.143,0-0.26-0.117-0.26-0.261v-0.713
		c0-0.143,0.117-0.26,0.26-0.26h2.133c0.052-0.002,0.094-0.007,0.145-0.016c0.184-0.047,0.327-0.2,0.356-0.396v-1.953
		c-0.032-0.214-0.202-0.379-0.413-0.407h-0.019h-2.01H56.43c-0.143,0-0.26-0.117-0.26-0.26V15.88v-0.478v-0.574
		c0-0.25,0.204-0.454,0.453-0.454h2.156c0.249,0,0.453,0.204,0.453,0.454v0.105c0.005,0.128,0.1,0.206,0.212,0.208h5.332
		c0.144,0,0.262,0.118,0.262,0.261v0.67c0,0.143-0.118,0.26-0.262,0.26h-2.218c-0.216,0.028-0.39,0.202-0.416,0.424v1.917
		c0.021,0.183,0.142,0.333,0.303,0.396c0.068,0.026,0.145,0.033,0.218,0.033h2.113c0.144,0,0.262,0.119,0.262,0.26v0.713
		c0,0.143-0.119,0.261-0.262,0.261H62.66c-0.077-0.005-0.25,0.077-0.188,0.273c0.72,2.135,1.439,4.27,2.159,6.406
		c0.037,0.152-0.048,0.294-0.223,0.303h-1.994c-0.236-0.012-0.293-0.166-0.32-0.229c-0.442-1.385-0.883-3.406-1.324-4.714
		c-0.104-0.353-0.241-0.352-0.34,0.014c-0.442,1.564-0.885,3.126-1.327,4.691C59.051,27.239,58.942,27.308,58.797,27.319
		 M66.915,15.142h5.21c0.614,0,1.116,0.502,1.116,1.117v9.953c0,0.612-0.502,1.115-1.116,1.115h-5.21
		c-0.614,0-1.117-0.503-1.117-1.115v-9.953C65.798,15.644,66.301,15.142,66.915,15.142 M68.812,16.186h1.354
		c0.16,0,0.291,0.131,0.291,0.291v9.516c0,0.16-0.131,0.29-0.291,0.29h-1.354c-0.16,0-0.29-0.13-0.29-0.29v-9.516
		C68.522,16.317,68.652,16.186,68.812,16.186"/>
	<path fill-rule="evenodd" clip-rule="evenodd" fill="#FFFFFF" d="M64.869,31.979h4.976c0.315,0,0.574,0.259,0.574,0.573v3.486
		c0,0.315-0.259,0.572-0.574,0.572h-4.976c-0.316,0-0.574-0.257-0.574-0.572v-3.486C64.295,32.238,64.553,31.979,64.869,31.979
		 M66.903,32.704h0.907c0.25,0,0.454,0.203,0.454,0.452v2.327c0,0.249-0.204,0.453-0.454,0.453h-0.907
		c-0.25,0-0.453-0.204-0.453-0.453v-2.327C66.451,32.907,66.654,32.704,66.903,32.704"/>
	<path fill-rule="evenodd" clip-rule="evenodd" fill="#FFFFFF" d="M85.576,31.979h2.969c0.284,0.008,0.461-0.245,0.463-0.458v-1.171
		c0-0.135,0.112-0.247,0.248-0.247h1.504c0.137,0,0.248,0.112,0.248,0.247v2.202v3.367v0.119c0,0.315-0.253,0.572-0.561,0.572
		h-4.871c-0.308,0-0.561-0.257-0.561-0.572v-3.486C85.016,32.238,85.269,31.979,85.576,31.979 M87.623,32.704h0.908
		c0.249,0,0.453,0.203,0.453,0.452v2.327c0,0.249-0.204,0.453-0.453,0.453h-0.908c-0.249,0-0.452-0.204-0.452-0.453v-2.327
		C87.171,32.907,87.374,32.704,87.623,32.704"/>
	<path fill-rule="evenodd" clip-rule="evenodd" fill="#FFFFFF" d="M39.394,36.611h6.791c0.315,0,0.573-0.257,0.573-0.572v-5.372
		c0-0.314-0.258-0.572-0.573-0.572h-0.987c-0.321,0-0.583,0.254-0.594,0.572c0,1.356,0.026,2.712,0,4.068
		c-0.008,0.465-0.386,0.873-0.844,0.898c-0.646,0.037-1.295,0.037-1.94,0c-0.458-0.025-0.844-0.434-0.844-0.898v-4.061h-0.001
		c-0.008-0.321-0.271-0.58-0.594-0.58h-0.986c-0.315,0-0.573,0.258-0.573,0.572v5.372C38.82,36.355,39.078,36.611,39.394,36.611"/>
	<path fill-rule="evenodd" clip-rule="evenodd" fill="#FFFFFF" d="M54.811,31.979h1.365c0.123,0,0.225,0.102,0.225,0.225v3.216
		c0,0.192,0.146,0.324,0.32,0.325h1.718h1.475h0.004h0.011h0.454h0.454c0.319,0,0.454-0.091,0.454-0.341v-0.237v-0.029
		c-0.006-0.213-0.076-0.299-0.279-0.325h-2.942c-0.419-0.05-0.743-0.405-0.743-0.836l0-0.027H57.32v-0.14v-1.24
		c0-0.313,0.258-0.572,0.573-0.572h2.937h0.004h0.918h1.493c0.1,0,0.181,0.083,0.181,0.181v0.506c0,0.099-0.082,0.182-0.181,0.182
		h-0.92h-1.49h-0.001H60.83h-0.449h-0.453c-0.319,0-0.454,0.091-0.454,0.341v0.236v0.03c0.005,0.212,0.075,0.297,0.278,0.326h2.942
		c0.418,0.05,0.743,0.403,0.743,0.836v0.025h0.005v0.142v0.011v1.227c0,0.316-0.258,0.573-0.573,0.573h-2.953h-0.004h-0.901h-3.104
		l-0.005-0.001h-1.092c-0.123,0-0.225-0.099-0.225-0.224v-4.184C54.586,32.081,54.688,31.979,54.811,31.979 M54.985,30.11H56
		c0.22,0,0.4,0.178,0.4,0.398v0.532c0,0.221-0.18,0.398-0.4,0.398h-1.015c-0.22,0-0.399-0.178-0.399-0.398v-0.532
		C54.586,30.288,54.765,30.11,54.985,30.11"/>
	<path fill-rule="evenodd" clip-rule="evenodd" fill="#FFFFFF" d="M83.658,31.98h-4.975c-0.315,0-0.573,0.258-0.573,0.572v3.631
		c0,0.314,0.115,0.429,0.429,0.429h1.275c0.32,0,0.438-0.111,0.451-0.429v-2.817v-0.047c0-0.466,0.099-0.613,0.557-0.613h0.698
		c0.458,0,0.558,0.147,0.558,0.613V33.4v2.776h0.001c0.007,0.32,0.126,0.436,0.451,0.436h1.272c0.315,0,0.43-0.115,0.43-0.429
		v-3.631C84.232,32.238,83.973,31.98,83.658,31.98"/>
	<path fill-rule="evenodd" clip-rule="evenodd" fill="#FFFFFF" d="M75.548,25.164c-0.325,0.608-0.651,1.216-0.976,1.822
		c-0.064,0.107-0.007,0.336,0.204,0.34h2.833c0.136,0,0.226-0.075,0.279-0.163c0.358-0.667,0.715-1.335,1.073-2.001
		c0.062-0.124,0.163-0.18,0.295-0.182h11.229c0.287,0,0.522-0.235,0.522-0.523v-4.703c0-0.287-0.235-0.522-0.522-0.522H76.241
		c-0.287,0-0.522,0.235-0.522,0.522v4.263C75.719,24.546,75.804,24.687,75.548,25.164 M85.051,16.367v0.495
		c0,0.122,0.067,0.282,0.263,0.282l5.433-0.001c0.145,0,0.262,0.118,0.262,0.262v0.522c0,0.143-0.117,0.26-0.262,0.26h-5.842h-0.438
		h-2.228h-0.439H75.98c-0.144,0-0.261-0.117-0.261-0.26v-0.522c0-0.144,0.117-0.262,0.261-0.262h5.418
		c0.15,0,0.255-0.139,0.251-0.251v-0.534c0-0.146-0.104-0.259-0.254-0.259H75.98c-0.143,0-0.261-0.117-0.261-0.261v-0.522
		c0-0.143,0.117-0.261,0.261-0.261h5.669v-0.17c0-0.243,0.198-0.44,0.441-0.44h2.521c0.244,0,0.441,0.198,0.441,0.44v0.17h5.693
		c0.145,0,0.262,0.118,0.262,0.261v0.522c0,0.144-0.117,0.261-0.262,0.261h-5.434C85.206,16.098,85.051,16.193,85.051,16.367
		 M82.298,20.742c-0.516,0.984-1.003,1.92-1.518,2.903c-0.078,0.15-0.311,0.285-0.482,0.289h-0.978c-0.257,0-0.468-0.21-0.468-0.468
		v-2.722c0-0.258,0.211-0.468,0.468-0.468h2.695C82.267,20.288,82.405,20.526,82.298,20.742 M84.287,23.461
		c0.525-1.003,0.999-1.905,1.524-2.908c0.061-0.15,0.241-0.282,0.437-0.277h1.16c0.257,0,0.468,0.21,0.468,0.468v2.722
		c0,0.258-0.211,0.468-0.468,0.468h-2.844C84.374,23.944,84.155,23.713,84.287,23.461"/>
	<path fill-rule="evenodd" clip-rule="evenodd" fill="#FFFFFF" d="M76.752,36.612h-4.976c-0.315,0-0.573-0.258-0.573-0.573V32.41
		c0-0.315,0.115-0.431,0.43-0.431h1.274c0.321,0,0.438,0.111,0.45,0.43v2.815v0.05c0,0.465,0.099,0.612,0.558,0.612h0.698
		c0.458,0,0.559-0.147,0.559-0.612v-0.083v-2.774h0.001c0.007-0.321,0.126-0.438,0.45-0.438h1.273c0.313,0,0.429,0.116,0.429,0.431
		v3.629C77.325,36.354,77.067,36.612,76.752,36.612"/>
	<path fill-rule="evenodd" clip-rule="evenodd" fill="#FFFFFF" d="M53.092,31.979h-4.976c-0.315,0-0.573,0.259-0.573,0.573v3.631
		c0,0.313,0.116,0.428,0.43,0.428h1.274c0.322,0,0.44-0.11,0.451-0.428v-2.817v-0.049c0-0.464,0.099-0.611,0.558-0.611h0.697
		c0.458,0,0.558,0.146,0.558,0.611V33.4v2.776h0.001c0.007,0.319,0.126,0.435,0.451,0.435h1.273c0.314,0,0.43-0.115,0.43-0.428
		v-3.631C53.665,32.238,53.407,31.979,53.092,31.979"/>
	<path fill-rule="evenodd" clip-rule="evenodd" fill="#FFFFFF" d="M24.407,37.602c-1.147,0.737-2.408,1.314-3.748,1.702
		c-0.115,0.033-0.232-0.001-0.311-0.092c-0.898-1.027-2.218-1.677-3.69-1.677c-1.472,0-2.792,0.649-3.69,1.677
		c-0.079,0.091-0.196,0.125-0.312,0.092c-1.34-0.388-2.6-0.965-3.748-1.702c-0.071-0.045-0.116-0.109-0.133-0.192
		c-0.017-0.082-0.002-0.16,0.045-0.23c1.694-2.521,4.572-4.181,7.838-4.181c3.265,0,6.143,1.66,7.837,4.181
		c0.047,0.07,0.063,0.148,0.045,0.23C24.523,37.492,24.478,37.557,24.407,37.602"/>
	<path fill-rule="evenodd" clip-rule="evenodd" fill="#FFFFFF" d="M20.659,11.685c1.34,0.387,2.601,0.965,3.748,1.7
		c0.071,0.046,0.116,0.111,0.133,0.193s0.002,0.16-0.045,0.229c-1.694,2.522-4.572,4.182-7.837,4.182
		c-3.266,0-6.144-1.66-7.838-4.182c-0.047-0.069-0.062-0.146-0.045-0.229s0.062-0.147,0.133-0.193
		c1.148-0.735,2.408-1.313,3.748-1.7c0.116-0.034,0.233,0,0.312,0.09c0.898,1.028,2.218,1.678,3.69,1.678
		c1.472,0,2.792-0.65,3.69-1.678C20.426,11.685,20.543,11.651,20.659,11.685"/>
	<path fill-rule="evenodd" clip-rule="evenodd" fill="#FFFFFF" d="M30.878,27.595c-0.323,2.201-1.143,4.239-2.345,5.997
		c-0.034,0.051-0.093,0.075-0.153,0.06c-0.06-0.012-0.103-0.058-0.113-0.118c-0.22-1.288-0.649-2.506-1.251-3.616
		c-0.07-0.131-0.035-0.288,0.083-0.377c1.077-0.8,2.058-1.721,2.925-2.742c0.063-0.073,0.148-0.109,0.245-0.103
		c0.097,0.007,0.177,0.055,0.228,0.137c0.119,0.188,0.234,0.38,0.346,0.574C30.877,27.466,30.889,27.527,30.878,27.595 M21.5,24.786
		c-1.477-0.668-3.116-1.041-4.843-1.041c-5.826,0-10.665,4.233-11.611,9.788c-0.01,0.061-0.054,0.106-0.113,0.118
		c-0.06,0.016-0.118-0.009-0.152-0.06c-1.202-1.758-2.022-3.797-2.345-5.997c-0.01-0.067,0.001-0.129,0.036-0.188
		c2.819-4.913,8.116-8.226,14.186-8.226c3.053,0,5.911,0.839,8.355,2.297c0.075,0.044,0.122,0.112,0.139,0.197
		c0.016,0.086-0.003,0.165-0.056,0.234c-0.897,1.171-2.031,2.151-3.333,2.867C21.68,24.822,21.588,24.824,21.5,24.786"/>
	<path fill-rule="evenodd" clip-rule="evenodd" fill="#FFFFFF" d="M28.533,17.395c1.202,1.758,2.022,3.797,2.345,5.998
		c0.01,0.068-0.001,0.13-0.035,0.189c-2.819,4.914-8.116,8.224-14.186,8.224c-3.054,0-5.912-0.838-8.356-2.296
		c-0.075-0.045-0.122-0.111-0.138-0.197c-0.016-0.084,0.003-0.165,0.055-0.234c0.896-1.173,2.032-2.151,3.333-2.865
		c0.083-0.047,0.175-0.049,0.262-0.011c1.478,0.667,3.117,1.039,4.844,1.039c5.825,0,10.664-4.231,11.61-9.788
		c0.01-0.061,0.053-0.106,0.113-0.12C28.441,17.322,28.5,17.345,28.533,17.395 M2.818,24.156c-0.119-0.188-0.235-0.38-0.346-0.573
		c-0.034-0.06-0.045-0.121-0.036-0.19c0.323-2.201,1.144-4.239,2.345-5.997c0.034-0.051,0.093-0.074,0.152-0.061
		s0.103,0.058,0.113,0.119c0.22,1.29,0.649,2.507,1.251,3.618c0.07,0.129,0.035,0.289-0.083,0.376
		c-1.076,0.8-2.058,1.72-2.925,2.741c-0.062,0.075-0.149,0.111-0.245,0.104C2.949,24.285,2.869,24.237,2.818,24.156"/>
	<line fill="#003768" x1="100.026" y1="14.602" x2="100.026" y2="36.385"/>
	
		<line fill="none" stroke="#FFFFFF" stroke-width="0.5" stroke-miterlimit="10" x1="100.026" y1="14.602" x2="100.026" y2="36.385"/>
	<path fill="#FFFFFF" d="M108.861,21.983h2.857c0.043-0.228,0.071-0.456,0.071-0.711v-0.611h-2.829l0.739-1.862l0.925,0.341
		l-0.242,0.555h4.99v0.967h-2.616v0.611c0,0.241-0.014,0.483-0.057,0.711h2.857v0.966h-2.146l2.218,1.876l-0.627,0.725l-2.729-2.288
		c-0.582,1.08-1.691,1.891-3.27,2.431l-0.313-0.91c1.251-0.441,2.132-1.052,2.63-1.833h-2.46V21.983z M111.095,31.764
		c-0.825,0-1.508-0.684-1.508-1.522v-2.7c0-0.839,0.683-1.521,1.508-1.521h8.116c0.825,0,1.508,0.682,1.508,1.521v2.7
		c0,0.839-0.683,1.522-1.508,1.522H111.095z M110.554,28.395h9.198v-0.854c0-0.313-0.241-0.555-0.541-0.555h-8.116
		c-0.3,0-0.541,0.242-0.541,0.555V28.395z M119.211,30.796c0.3,0,0.541-0.24,0.541-0.555V29.36h-9.198v0.881
		c0,0.314,0.241,0.555,0.541,0.555H119.211z M117.676,25.38c-0.839,0-1.521-0.682-1.521-1.521v-3.114
		c0-0.839,0.682-1.536,1.521-1.536h2.345c0.84,0,1.536,0.697,1.536,1.536v3.114c0,0.839-0.696,1.521-1.536,1.521H117.676z
		 M120.021,24.413c0.314,0,0.569-0.242,0.569-0.554v-3.114c0-0.313-0.255-0.569-0.569-0.569h-2.345
		c-0.313,0-0.554,0.256-0.554,0.569v3.114c0,0.312,0.24,0.554,0.554,0.554H120.021z"/>
	<path fill="#FFFFFF" d="M122.907,28.066h7.663c0.726-0.368,1.351-0.768,1.905-1.237h-8.814v-0.966h11.104
		c-0.812,0.896-1.607,1.635-2.39,2.203h3.327v0.968h-4.848l-0.114,0.056v0.925c0,0.909-0.695,1.635-1.534,1.635h-2.389v-0.967h2.389
		c0.312,0,0.555-0.299,0.555-0.668v-0.98h-6.854V28.066z M129.916,18.827v0.853h5.871v0.966h-12.78V19.68h5.929v-0.853H129.916z
		 M135.02,23.831c0,0.54-0.455,0.995-1.009,0.995h-9.497c-0.554,0-1.009-0.455-1.009-0.995v-1.137c0-0.556,0.455-1.01,1.009-1.01
		h9.497c0.554,0,1.009,0.454,1.009,1.01V23.831z M134.054,22.694c0-0.029-0.015-0.043-0.043-0.043h-9.497
		c-0.028,0-0.042,0.014-0.042,0.043v1.137c0,0.015,0.014,0.029,0.042,0.029h9.497c0.028,0,0.043-0.014,0.043-0.029V22.694z"/>
	<path fill="#FFFFFF" d="M143.976,18.741v1.592h4.934V21.3h-4.934v2.701h5.588v0.968h-3.711l4.137,5.955l-0.795,0.54l-4.521-6.495
		h-0.697v6.852h-0.966v-6.852h-0.654c-1.037,2.714-2.545,4.761-4.621,6.468l-0.61-0.754c1.862-1.507,3.212-3.326,4.181-5.714h-3.882
		v-0.968h5.587V21.3h-4.933v-0.967h4.933v-1.592H143.976z"/>
	<path fill="#FFFFFF" d="M158.249,18.741v1.521h5.403v0.966h-5.403v3.64h2.104l1.181-3.171l0.91,0.342l-1.051,2.829h2.743v0.966
		h-3.854l3.982,5.331l-0.783,0.568l-4.421-5.899h-0.811v5.985h-0.967v-5.985h-0.682c-1.108,2.473-2.616,4.336-4.748,5.899
		l-0.569-0.795c1.863-1.365,3.229-2.987,4.251-5.104h-4.108v-0.966h2.701l-1.053-2.829l0.91-0.342l1.181,3.171h2.117v-3.64h-5.415
		v-0.966h5.415v-1.521H158.249z"/>
</g>
<g id="图层_2" display="none">
	<path display="inline" fill-rule="evenodd" clip-rule="evenodd" fill="#003768" d="M43.822,27.67h-0.034h-0.034h-0.034h-0.034
		h-0.034h-0.034h-0.034h-0.034h-0.034h-0.034h-0.034h-0.034h-0.034h-0.034h-0.034H43.28h-0.034h-0.034h-0.034h-0.034H43.11h-0.034
		h-0.034h-0.034h-0.034H42.94h-0.034h-0.034h-0.034h-0.034h-0.034h-0.034h-0.034h-0.034h-0.034h-0.034h-0.034h-0.034H42.5h-0.034
		h-0.034h-0.033h-0.035H42.33h-0.034h-0.033h-0.034h-0.034h-0.034h-0.034h-0.034h-0.034h-0.034h-0.034h-0.016h-0.323
		c-0.524-0.008-1.141-0.6-0.725-1.324l2.841-4.763c0.122-0.328-0.003-0.781-0.512-0.828h-3.151c-0.187,0-0.339-0.152-0.339-0.339
		v-0.679c0-0.187,0.152-0.339,0.339-0.339h14.532c0.187,0,0.339,0.153,0.339,0.339v0.679c0,0.187-0.153,0.339-0.339,0.339h-6.424
		c-0.172,0.023-0.321,0.119-0.416,0.255l-2.644,4.429c-0.212,0.553,0.076,1.114,0.658,1.21h3.695
		c0.564-0.093,0.851-0.622,0.679-1.155c-0.417-0.658-1.107-1.674-1.523-2.333c-0.152-0.225,0.031-0.379,0.183-0.357h3.106
		c0.08,0,0.189,0.033,0.266,0.147l2.239,3.395c0.416,0.725-0.2,1.316-0.725,1.324h-1.002h-0.015H52.68h-0.034h-0.034h-0.034h-0.034
		h-0.034h-0.034h-0.034h-0.034h-0.034h-0.034h-0.034h-0.034h-0.034h-0.034h-0.034h-0.034h-0.034H52.07h-0.035h-0.033h-0.034h-0.034
		H51.9h-0.034h-0.034h-0.034h-0.034h-0.034h-0.034h-0.034h-0.034h-0.034h-0.034H43.822z M40.096,15.676h14.552
		c0.181,0,0.33,0.148,0.33,0.329v0.659c0,0.182-0.148,0.33-0.33,0.33H40.096c-0.181,0-0.329-0.148-0.329-0.33v-0.659
		C39.767,15.824,39.915,15.676,40.096,15.676"/>
	<path display="inline" fill-rule="evenodd" clip-rule="evenodd" fill="#003768" d="M59.204,27.582h-1.957
		c-0.128-0.006-0.257-0.11-0.216-0.297c0.704-2.09,1.409-4.179,2.113-6.268c0.049-0.191-0.104-0.264-0.187-0.262h-2.068
		c-0.14,0-0.255-0.115-0.255-0.255v-0.697c0-0.141,0.115-0.255,0.255-0.255h2.085c0.05-0.001,0.091-0.006,0.141-0.015
		c0.181-0.046,0.32-0.197,0.349-0.387v-1.908c-0.032-0.209-0.198-0.371-0.404-0.397h-0.019h-1.965h-0.188
		c-0.14,0-0.255-0.115-0.255-0.255v-0.188v-0.467v-0.563c0-0.244,0.199-0.443,0.443-0.443h2.108c0.244,0,0.443,0.199,0.443,0.443
		v0.104c0.004,0.125,0.097,0.201,0.207,0.204h5.213c0.14,0,0.256,0.115,0.256,0.255v0.654c0,0.14-0.116,0.255-0.256,0.255H62.88
		c-0.212,0.027-0.381,0.197-0.406,0.414v1.875c0.02,0.178,0.138,0.325,0.296,0.387c0.066,0.026,0.141,0.032,0.212,0.032h2.066
		c0.14,0,0.256,0.116,0.256,0.255V20.5c0,0.14-0.116,0.255-0.256,0.255h-2.07c-0.075-0.005-0.244,0.075-0.183,0.267
		c0.704,2.087,1.407,4.175,2.111,6.263c0.036,0.15-0.047,0.287-0.218,0.297h-1.95c-0.23-0.014-0.287-0.162-0.313-0.226
		c-0.431-1.354-0.863-3.329-1.294-4.609c-0.102-0.344-0.235-0.343-0.333,0.014c-0.432,1.529-0.865,3.058-1.296,4.587
		C59.452,27.502,59.345,27.57,59.204,27.582 M67.14,15.676h5.093c0.601,0,1.091,0.491,1.091,1.091v9.73
		c0,0.601-0.491,1.092-1.091,1.092H67.14c-0.601,0-1.092-0.491-1.092-1.092v-9.73C66.048,16.167,66.54,15.676,67.14,15.676
		 M68.995,16.697h1.324c0.156,0,0.284,0.128,0.284,0.284v9.302c0,0.156-0.128,0.284-0.284,0.284h-1.324
		c-0.156,0-0.284-0.128-0.284-0.284v-9.302C68.711,16.825,68.839,16.697,68.995,16.697"/>
	<path display="inline" fill-rule="evenodd" clip-rule="evenodd" fill="#003768" d="M65.139,32.138h4.865
		c0.308,0,0.56,0.252,0.56,0.561v3.408c0,0.309-0.252,0.561-0.56,0.561h-4.865c-0.308,0-0.56-0.252-0.56-0.561v-3.408
		C64.579,32.39,64.832,32.138,65.139,32.138 M67.128,32.845h0.887c0.244,0,0.443,0.2,0.443,0.444v2.273
		c0,0.244-0.2,0.443-0.443,0.443h-0.887c-0.244,0-0.443-0.199-0.443-0.443v-2.273C66.686,33.045,66.885,32.845,67.128,32.845"/>
	<path display="inline" fill-rule="evenodd" clip-rule="evenodd" fill="#003768" d="M85.386,32.138h2.9
		c0.278,0.008,0.451-0.24,0.454-0.448v-1.144c0-0.134,0.108-0.242,0.242-0.242h1.471c0.133,0,0.241,0.108,0.241,0.242v2.152v3.294
		v0.114c0,0.309-0.246,0.561-0.548,0.561h-4.761c-0.302,0-0.549-0.252-0.549-0.561v-3.408C84.837,32.39,85.084,32.138,85.386,32.138
		 M87.387,32.845h0.887c0.243,0,0.442,0.2,0.442,0.444v2.273c0,0.244-0.199,0.443-0.442,0.443h-0.887
		c-0.244,0-0.443-0.199-0.443-0.443v-2.273C86.943,33.045,87.143,32.845,87.387,32.845"/>
	<path display="inline" fill-rule="evenodd" clip-rule="evenodd" fill="#003768" d="M40.233,36.667h6.64
		c0.308,0,0.56-0.252,0.56-0.561v-5.252c0-0.309-0.252-0.561-0.56-0.561h-0.966c-0.314,0-0.569,0.249-0.58,0.561
		c0,1.326,0.024,2.651,0,3.978c-0.009,0.454-0.378,0.853-0.826,0.879c-0.631,0.035-1.265,0.035-1.896,0
		c-0.448-0.026-0.826-0.425-0.826-0.879v-3.97h-0.001c-0.007-0.314-0.265-0.568-0.581-0.568h-0.964
		c-0.308,0-0.561,0.252-0.561,0.561v5.252C39.672,36.415,39.925,36.667,40.233,36.667"/>
	<path display="inline" fill-rule="evenodd" clip-rule="evenodd" fill="#003768" d="M55.306,32.138h1.334
		c0.121,0,0.219,0.099,0.219,0.22v3.144c0.001,0.188,0.145,0.318,0.314,0.318h1.679h1.442h0.004h0.011h0.443h0.443
		c0.313,0,0.443-0.09,0.443-0.332v-0.232v-0.03c-0.006-0.207-0.074-0.29-0.272-0.317h-2.876c-0.409-0.049-0.726-0.396-0.726-0.818
		l0-0.025h-0.006v-0.137v-1.211c0-0.309,0.252-0.561,0.561-0.561h2.871h0.004h0.898h1.459c0.098,0,0.177,0.079,0.177,0.177v0.494
		c0,0.097-0.08,0.177-0.177,0.177h-0.899h-1.458h-0.001H61.19h-0.438H60.31c-0.312,0-0.443,0.091-0.443,0.333v0.231v0.03
		c0.005,0.207,0.073,0.29,0.271,0.317h2.876c0.409,0.049,0.726,0.396,0.726,0.818v0.025h0.005v0.137v0.012v1.199
		c0,0.309-0.252,0.561-0.56,0.561h-2.887h-0.004h-0.881h-3.034h-0.004h-1.068c-0.121,0-0.22-0.099-0.22-0.219v-4.091
		C55.086,32.236,55.185,32.138,55.306,32.138 M55.477,30.31h0.992c0.215,0,0.39,0.176,0.39,0.391v0.521
		c0,0.215-0.175,0.39-0.39,0.39h-0.992c-0.215,0-0.391-0.175-0.391-0.39V30.7C55.086,30.485,55.261,30.31,55.477,30.31"/>
	<path display="inline" fill-rule="evenodd" clip-rule="evenodd" fill="#003768" d="M83.51,32.138h-4.865
		c-0.309,0-0.561,0.253-0.561,0.561v3.549c0,0.309,0.113,0.42,0.42,0.42h1.246c0.314,0,0.429-0.108,0.44-0.42v-2.752v-0.049
		c0-0.454,0.097-0.599,0.545-0.599h0.682c0.448,0,0.546,0.145,0.546,0.599v0.081v2.713h0.001c0.007,0.314,0.124,0.427,0.44,0.427
		h1.245c0.307,0,0.42-0.112,0.42-0.42v-3.549C84.07,32.391,83.817,32.138,83.51,32.138"/>
	<path display="inline" fill-rule="evenodd" clip-rule="evenodd" fill="#003768" d="M75.58,25.475
		c-0.318,0.594-0.636,1.188-0.954,1.781c-0.063,0.105-0.006,0.329,0.199,0.332h2.771c0.133,0,0.22-0.072,0.273-0.16
		c0.35-0.65,0.699-1.304,1.049-1.955c0.062-0.121,0.16-0.178,0.289-0.18h10.979c0.28,0,0.51-0.229,0.51-0.51v-4.598
		c0-0.28-0.229-0.51-0.51-0.51H76.258c-0.281,0-0.51,0.229-0.51,0.51v4.167C75.748,24.87,75.831,25.008,75.58,25.475 M84.87,16.875
		v0.484c0,0.119,0.067,0.275,0.256,0.275l5.313,0c0.141,0,0.255,0.115,0.255,0.254v0.511c0,0.14-0.114,0.256-0.255,0.256h-5.712
		h-0.43H82.12h-0.431h-5.686c-0.141,0-0.256-0.116-0.256-0.256v-0.511c0-0.14,0.115-0.254,0.256-0.254H81.3
		c0.146,0,0.25-0.136,0.246-0.247v-0.522c0-0.142-0.101-0.252-0.248-0.252h-5.294c-0.141,0-0.256-0.115-0.256-0.255v-0.511
		c0-0.14,0.115-0.255,0.256-0.255h5.542v-0.167c0-0.237,0.193-0.431,0.431-0.431h2.465c0.237,0,0.431,0.194,0.431,0.431v0.167h5.567
		c0.141,0,0.255,0.115,0.255,0.255v0.511c0,0.14-0.114,0.255-0.255,0.255h-5.313C85.021,16.611,84.87,16.704,84.87,16.875
		 M82.18,21.151c-0.504,0.962-0.98,1.877-1.484,2.838c-0.076,0.146-0.303,0.279-0.471,0.282h-0.956
		c-0.251,0-0.458-0.206-0.458-0.458v-2.661c0-0.252,0.206-0.458,0.458-0.458h2.636C82.149,20.707,82.283,20.94,82.18,21.151
		 M84.123,23.81c0.515-0.981,0.977-1.862,1.491-2.843c0.059-0.147,0.234-0.276,0.426-0.271h1.134c0.252,0,0.458,0.206,0.458,0.458
		v2.661c0,0.252-0.206,0.458-0.458,0.458h-2.779C84.209,24.282,83.995,24.056,84.123,23.81"/>
	<path display="inline" fill-rule="evenodd" clip-rule="evenodd" fill="#003768" d="M76.757,36.667h-4.865
		c-0.308,0-0.561-0.252-0.561-0.561v-3.548c0-0.308,0.113-0.421,0.42-0.421h1.246c0.314,0,0.43,0.109,0.44,0.42v2.753v0.049
		c0,0.453,0.097,0.598,0.545,0.598h0.682c0.449,0,0.546-0.145,0.546-0.598v-0.081v-2.713h0.001c0.007-0.314,0.124-0.428,0.44-0.428
		h1.245c0.306,0,0.42,0.113,0.42,0.421v3.548C77.317,36.415,77.065,36.667,76.757,36.667"/>
	<path display="inline" fill-rule="evenodd" clip-rule="evenodd" fill="#003768" d="M53.625,32.138H48.76
		c-0.308,0-0.561,0.252-0.561,0.561v3.549c0,0.308,0.113,0.42,0.42,0.42h1.246c0.314,0,0.429-0.109,0.44-0.42v-2.753v-0.049
		c0-0.453,0.097-0.598,0.545-0.598h0.682c0.449,0,0.546,0.145,0.546,0.598v0.082v2.712h0.001c0.007,0.314,0.124,0.428,0.441,0.428
		h1.244c0.307,0,0.42-0.113,0.42-0.42v-3.549C54.186,32.39,53.934,32.138,53.625,32.138"/>
	<path display="inline" fill-rule="evenodd" clip-rule="evenodd" fill="#003768" d="M25.582,37.634
		c-1.123,0.721-2.354,1.285-3.665,1.664c-0.112,0.032-0.227-0.001-0.304-0.089c-0.878-1.005-2.168-1.641-3.607-1.641
		s-2.73,0.636-3.608,1.641c-0.077,0.088-0.191,0.121-0.304,0.089c-1.31-0.379-2.542-0.943-3.665-1.664
		c-0.069-0.043-0.113-0.107-0.13-0.188c-0.017-0.08-0.002-0.155,0.044-0.224c1.656-2.466,4.469-4.089,7.662-4.089
		c3.192,0,6.006,1.623,7.662,4.089c0.046,0.068,0.061,0.144,0.044,0.224C25.694,37.526,25.651,37.591,25.582,37.634"/>
	<path display="inline" fill-rule="evenodd" clip-rule="evenodd" fill="#1AA9A4" d="M21.917,12.295
		c1.311,0.379,2.542,0.944,3.665,1.663c0.069,0.045,0.113,0.108,0.13,0.189c0.017,0.081,0.002,0.156-0.044,0.225
		c-1.656,2.465-4.47,4.088-7.662,4.088c-3.193,0-6.006-1.624-7.662-4.088c-0.046-0.069-0.061-0.144-0.044-0.225
		s0.061-0.144,0.13-0.189c1.123-0.719,2.354-1.284,3.665-1.663c0.113-0.033,0.227,0.001,0.304,0.089
		c0.878,1.005,2.169,1.64,3.608,1.64s2.729-0.635,3.607-1.64C21.689,12.296,21.804,12.263,21.917,12.295"/>
	<path display="inline" fill-rule="evenodd" clip-rule="evenodd" fill="#003768" d="M31.909,27.852
		c-0.316,2.15-1.118,4.144-2.292,5.862c-0.034,0.05-0.091,0.072-0.149,0.06c-0.058-0.014-0.101-0.058-0.111-0.116
		c-0.215-1.261-0.635-2.451-1.224-3.537c-0.069-0.126-0.035-0.281,0.081-0.368c1.053-0.781,2.012-1.682,2.86-2.68
		c0.062-0.072,0.145-0.107,0.239-0.101s0.173,0.054,0.223,0.134c0.116,0.184,0.229,0.371,0.338,0.561
		C31.906,27.724,31.918,27.785,31.909,27.852 M22.74,25.104c-1.444-0.653-3.047-1.017-4.735-1.017
		c-5.695,0-10.426,4.138-11.351,9.569c-0.01,0.059-0.053,0.103-0.111,0.116c-0.058,0.013-0.115-0.01-0.149-0.06
		c-1.174-1.719-1.977-3.712-2.292-5.862c-0.01-0.066,0.001-0.128,0.035-0.186c2.756-4.803,7.935-8.041,13.869-8.041
		c2.985,0,5.779,0.819,8.169,2.245c0.073,0.044,0.119,0.109,0.135,0.192c0.016,0.083-0.002,0.162-0.054,0.229
		c-0.876,1.146-1.986,2.104-3.258,2.803C22.916,25.139,22.826,25.143,22.74,25.104"/>
	<path display="inline" fill-rule="evenodd" clip-rule="evenodd" fill="#1AA9A4" d="M29.616,17.879
		c1.175,1.719,1.977,3.712,2.293,5.864c0.009,0.066-0.002,0.126-0.035,0.185c-2.756,4.803-7.935,8.041-13.869,8.041
		c-2.985,0-5.779-0.819-8.169-2.245C9.763,29.68,9.716,29.613,9.7,29.53s0.002-0.161,0.054-0.229
		c0.877-1.146,1.987-2.103,3.259-2.803c0.082-0.044,0.172-0.047,0.257-0.009c1.444,0.652,3.047,1.016,4.735,1.016
		c5.695,0,10.426-4.137,11.351-9.569c0.01-0.059,0.053-0.104,0.111-0.117C29.525,17.807,29.583,17.83,29.616,17.879 M4.474,24.489
		c-0.117-0.185-0.229-0.372-0.338-0.562c-0.034-0.058-0.045-0.118-0.035-0.185c0.315-2.151,1.118-4.145,2.292-5.863
		c0.034-0.049,0.091-0.072,0.149-0.059c0.059,0.012,0.101,0.057,0.111,0.116c0.215,1.261,0.634,2.452,1.224,3.537
		c0.068,0.126,0.035,0.282-0.081,0.368c-1.053,0.782-2.013,1.683-2.86,2.681c-0.061,0.072-0.145,0.107-0.239,0.101
		C4.602,24.615,4.524,24.569,4.474,24.489"/>
	
		<line display="inline" fill="none" stroke="#003768" stroke-width="0.5" stroke-miterlimit="10" x1="99.512" y1="15.149" x2="99.512" y2="36.444"/>
	<path display="inline" fill="#003768" d="M108.149,22.364h2.794c0.042-0.223,0.069-0.445,0.069-0.695v-0.598h-2.766l0.723-1.82
		l0.903,0.333l-0.236,0.542h4.879v0.945h-2.558v0.598c0,0.236-0.014,0.472-0.056,0.695h2.794v0.945h-2.099l2.168,1.835l-0.611,0.708
		l-2.669-2.237c-0.569,1.056-1.653,1.848-3.196,2.376l-0.307-0.89c1.224-0.431,2.085-1.028,2.572-1.793h-2.405V22.364z
		 M110.332,31.927c-0.807,0-1.474-0.668-1.474-1.487v-2.641c0-0.82,0.667-1.488,1.474-1.488h7.937c0.807,0,1.473,0.668,1.473,1.488
		v2.641c0,0.819-0.666,1.487-1.473,1.487H110.332z M109.804,28.632h8.993v-0.833c0-0.307-0.236-0.543-0.528-0.543h-7.937
		c-0.292,0-0.528,0.236-0.528,0.543V28.632z M118.269,30.98c0.292,0,0.528-0.236,0.528-0.541v-0.863h-8.993v0.863
		c0,0.305,0.236,0.541,0.528,0.541H118.269z M116.767,25.686c-0.819,0-1.487-0.667-1.487-1.487v-3.044
		c0-0.82,0.668-1.501,1.487-1.501h2.294c0.82,0,1.501,0.681,1.501,1.501v3.044c0,0.82-0.681,1.487-1.501,1.487H116.767z
		 M119.061,24.74c0.306,0,0.556-0.236,0.556-0.542v-3.044c0-0.306-0.25-0.556-0.556-0.556h-2.294c-0.305,0-0.541,0.25-0.541,0.556
		v3.044c0,0.306,0.236,0.542,0.541,0.542H119.061z"/>
	<path display="inline" fill="#003768" d="M121.882,28.312h7.491c0.709-0.36,1.321-0.75,1.862-1.208h-8.617v-0.945h10.855
		c-0.793,0.875-1.57,1.598-2.335,2.153h3.252v0.946h-4.739l-0.11,0.055v0.904c0,0.89-0.682,1.598-1.502,1.598h-2.335V30.87h2.335
		c0.306,0,0.542-0.292,0.542-0.653v-0.959h-6.699V28.312z M128.734,19.278v0.834h5.74v0.945h-12.496v-0.945h5.797v-0.834H128.734z
		 M133.724,24.17c0,0.528-0.444,0.973-0.986,0.973h-9.285c-0.542,0-0.986-0.445-0.986-0.973v-1.112c0-0.542,0.444-0.987,0.986-0.987
		h9.285c0.542,0,0.986,0.445,0.986,0.987V24.17z M132.778,23.059c0-0.028-0.014-0.042-0.041-0.042h-9.285
		c-0.027,0-0.041,0.014-0.041,0.042v1.112c0,0.014,0.014,0.028,0.041,0.028h9.285c0.027,0,0.041-0.014,0.041-0.028V23.059z"/>
	<path display="inline" fill="#003768" d="M142.48,19.195v1.557h4.822v0.945h-4.822v2.641h5.462v0.945h-3.628l4.045,5.824
		l-0.778,0.527l-4.42-6.352h-0.681v6.699h-0.945v-6.699h-0.639c-1.016,2.655-2.489,4.656-4.518,6.324l-0.598-0.736
		c1.82-1.474,3.141-3.253,4.086-5.588h-3.794v-0.945h5.462v-2.641h-4.822v-0.945h4.822v-1.557H142.48z"/>
	<path display="inline" fill="#003768" d="M156.436,19.195v1.487h5.28v0.945h-5.28v3.559h2.056l1.154-3.1l0.89,0.333l-1.028,2.767
		h2.682v0.944h-3.767l3.893,5.212l-0.765,0.556l-4.322-5.768h-0.792v5.852h-0.946V26.13h-0.667
		c-1.084,2.418-2.557,4.239-4.643,5.768l-0.556-0.777c1.821-1.334,3.155-2.919,4.156-4.99h-4.018v-0.944h2.642l-1.028-2.767
		l0.89-0.333l1.153,3.1h2.07v-3.559h-5.295v-0.945h5.295v-1.487H156.436z"/>
	<polyline display="inline" fill="none" points="164.264,41.235 2.433,41.235 2.433,9.753 164.264,9.753 	"/>
</g>
</svg>
